<svg width="13" height="13" viewBox="0 0 13 13" fill="none" xmlns="http://www.w3.org/2000/svg">
<path d="M12.7712 4.82905C13.0638 5.94303 13.0638 7.05688 12.7712 8.17085C12.4784 9.28493 11.916 10.2582 11.0835 11.0912C10.2511 11.9242 9.27831 12.4873 8.16513 12.7801C7.05195 13.0731 5.93888 13.0731 4.82562 12.7802C3.71229 12.4873 2.7395 11.9243 1.90715 11.0914C1.07477 10.2584 0.512329 9.28499 0.219466 8.17098C-0.073167 7.05702 -0.0731673 5.94317 0.219487 4.82912C0.512266 3.7151 1.07481 2.74167 1.9072 1.9087C2.73958 1.07573 3.71242 0.512717 4.82562 0.219775C5.93871 -0.0731887 7.05191 -0.0730201 8.16507 0.219837C9.27824 0.512842 10.251 1.07586 11.0833 1.90879C11.9158 2.74177 12.4784 3.71527 12.7712 4.82905ZM10.4143 10.4217C11.402 9.43337 11.9377 8.24368 12.0214 6.8528L11.8422 6.82298C11.7705 6.81094 11.6152 6.80506 11.3762 6.80495C11.1373 6.80498 10.8933 6.82185 10.6444 6.85573C10.3954 6.8897 10.0809 6.95934 9.70044 7.06504C9.32007 7.17066 8.94066 7.30907 8.56228 7.4805C8.94872 8.78381 9.21959 10.0352 9.37485 11.2348C9.7652 10.9956 10.1117 10.7246 10.4143 10.4217ZM5.85631 12.0061C6.72044 12.1056 7.5568 12.0101 8.36532 11.7191C8.20202 10.5673 7.93508 9.32777 7.56475 8.00059C6.03538 8.89334 4.66933 9.94148 3.46659 11.1452C4.19547 11.6194 4.99207 11.9064 5.85631 12.0061ZM1.42616 8.74476C1.69893 9.3685 2.08236 9.92754 2.57627 10.4218C2.63205 10.4776 2.67593 10.5174 2.70772 10.5414C4.14954 9.09853 5.67491 7.94263 7.28401 7.07388C7.16457 6.69923 7.04906 6.37241 6.93749 6.09337C6.91341 6.10156 6.8788 6.11835 6.83295 6.14426C6.78702 6.17028 6.7543 6.18921 6.73419 6.20125L6.43555 6.34469C6.22835 6.44038 5.93455 6.54305 5.55436 6.65262C5.17391 6.76205 4.75284 6.86078 4.29078 6.94843C3.8287 7.03606 3.297 7.07195 2.69554 7.05587C2.09416 7.03996 1.51676 6.95436 0.963174 6.79895C0.998998 7.47248 1.15346 8.12118 1.42616 8.74476ZM2.57627 2.5782C1.64428 3.51084 1.11063 4.64276 0.975144 5.97389L0.999019 5.81842C1.44516 5.98591 1.94499 6.07564 2.49859 6.08747C3.05216 6.09934 3.54113 6.06659 3.96534 5.98893C4.38938 5.9111 4.82545 5.8015 5.27374 5.66016C5.72168 5.51859 6.02038 5.41517 6.1697 5.34917C6.31906 5.28338 6.43764 5.23063 6.52529 5.19082L6.54319 5.18494L6.55522 5.1729C5.92185 3.75817 5.209 2.48659 4.41637 1.35875C3.71531 1.64562 3.10211 2.05212 2.57627 2.5782ZM7.67536 1.08051C6.92454 0.919066 6.17861 0.910104 5.43806 1.05356C6.19064 2.13374 6.86995 3.32339 7.47515 4.6227C8.39133 3.95326 9.14792 3.08034 9.74543 2.00433C9.11612 1.55001 8.42596 1.24201 7.67536 1.08051ZM10.4084 2.69181C10.3765 2.73958 10.3357 2.7985 10.2858 2.86817C10.236 2.93783 10.1753 3.02266 10.1036 3.12231C10.032 3.22183 9.94915 3.33055 9.85566 3.44806C9.76205 3.56565 9.66048 3.68916 9.55085 3.81879C9.44141 3.94832 9.32183 4.08378 9.19251 4.22525C9.06289 4.36686 8.92857 4.5073 8.78915 4.64682C8.64987 4.78619 8.49934 4.92875 8.33818 5.07419C8.17703 5.21974 8.01462 5.35405 7.85138 5.47761C7.85929 5.5096 7.87727 5.55741 7.90518 5.62119C7.93305 5.68489 7.9549 5.73288 7.97107 5.76452C8.06258 6.00773 8.16412 6.28478 8.27549 6.59569C8.6619 6.43234 9.05223 6.2987 9.44671 6.19497C9.84095 6.09147 10.1693 6.02178 10.4322 5.98581C10.6952 5.95002 10.9571 5.92912 11.2179 5.92314C11.4788 5.91708 11.6539 5.91916 11.7437 5.929C11.8334 5.93901 11.92 5.94996 12.0035 5.96189L12.0156 5.96191C11.8881 4.67063 11.3685 3.55659 10.4562 2.62005L10.4084 2.69181Z" fill="white"/>
</svg>
