<svg width="10" height="10" viewBox="0 0 10 10" fill="none" xmlns="http://www.w3.org/2000/svg">
<g clip-path="url(#clip0_0_1301)">
<path fill-rule="evenodd" clip-rule="evenodd" d="M4.99998 2.08315C4.77897 2.08315 4.567 2.17095 4.41072 2.32723C4.25444 2.48351 4.16664 2.69547 4.16664 2.91649C4.16664 3.13751 4.25444 3.34947 4.41072 3.50575C4.567 3.66203 4.77897 3.74983 4.99998 3.74983C5.221 3.74983 5.43296 3.66203 5.58924 3.50575C5.74553 3.34947 5.83332 3.13751 5.83332 2.91649C5.83332 2.69547 5.74553 2.48351 5.58924 2.32723C5.43296 2.17095 5.221 2.08315 4.99998 2.08315ZM3.82146 1.73797C4.13402 1.4254 4.55795 1.24981 4.99998 1.24981C5.44201 1.24981 5.86594 1.4254 6.17851 1.73797C6.49107 2.05053 6.66667 2.47446 6.66667 2.91649C6.66667 3.35852 6.49107 3.78245 6.17851 4.09501C5.86594 4.40758 5.44201 4.58317 4.99998 4.58317C4.55795 4.58317 4.13402 4.40758 3.82146 4.09501C3.5089 3.78245 3.3333 3.35852 3.3333 2.91649C3.3333 2.47446 3.5089 2.05053 3.82146 1.73797ZM2.08329 3.74983C1.97278 3.74983 1.8668 3.79373 1.78865 3.87187C1.71051 3.95001 1.66661 4.05599 1.66661 4.1665C1.66661 4.27701 1.71051 4.38299 1.78865 4.46113C1.8668 4.53927 1.97278 4.58317 2.08329 4.58317C2.19379 4.58317 2.29978 4.53927 2.37792 4.46113C2.45606 4.38299 2.49996 4.27701 2.49996 4.1665C2.49996 4.05599 2.45606 3.95001 2.37792 3.87187C2.29978 3.79373 2.19379 3.74983 2.08329 3.74983ZM1.19939 3.28261C1.43382 3.04819 1.75176 2.91649 2.08329 2.91649C2.41481 2.91649 2.73276 3.04819 2.96718 3.28261C3.2016 3.51703 3.3333 3.83498 3.3333 4.1665C3.3333 4.49803 3.2016 4.81597 2.96718 5.05039C2.73276 5.28482 2.41481 5.41651 2.08329 5.41651C1.75176 5.41651 1.43382 5.28482 1.19939 5.05039C0.96497 4.81597 0.833273 4.49803 0.833273 4.1665C0.833273 3.83498 0.96497 3.51703 1.19939 3.28261ZM7.91668 3.74983C7.80617 3.74983 7.70019 3.79373 7.62205 3.87187C7.54391 3.95001 7.50001 4.05599 7.50001 4.1665C7.50001 4.27701 7.54391 4.38299 7.62205 4.46113C7.70019 4.53927 7.80617 4.58317 7.91668 4.58317C8.02719 4.58317 8.13317 4.53927 8.21131 4.46113C8.28945 4.38299 8.33335 4.27701 8.33335 4.1665C8.33335 4.05599 8.28945 3.95001 8.21131 3.87187C8.13317 3.79373 8.02719 3.74983 7.91668 3.74983ZM7.03279 3.28261C7.26721 3.04819 7.58516 2.91649 7.91668 2.91649C8.2482 2.91649 8.56615 3.04819 8.80057 3.28261C9.035 3.51703 9.16669 3.83498 9.16669 4.1665C9.16669 4.49803 9.035 4.81597 8.80057 5.05039C8.56615 5.28482 8.2482 5.41651 7.91668 5.41651C7.58516 5.41651 7.26721 5.28482 7.03279 5.05039C6.79836 4.81597 6.66667 4.49803 6.66667 4.1665C6.66667 3.83498 6.79836 3.51703 7.03279 3.28261ZM4.99998 5.83289C4.66675 5.83289 4.34116 5.93273 4.06521 6.11953C3.80509 6.29562 3.60032 6.54138 3.47399 6.82813L3.37353 7.91654H6.62644L6.52598 6.82813C6.39965 6.54137 6.19488 6.29562 5.93475 6.11953C5.6588 5.93273 5.33321 5.83289 4.99998 5.83289ZM7.50001 7.91654H8.75002V7.4999C8.75002 7.49989 8.75002 7.49991 8.75002 7.4999C8.75 7.32672 8.69603 7.15783 8.59561 7.01674C8.49519 6.87564 8.3533 6.76933 8.18967 6.7126C8.02604 6.65587 7.8488 6.65152 7.68258 6.70017C7.58393 6.72905 7.49207 6.77574 7.41128 6.83737C7.46924 7.04883 7.50001 7.27111 7.50001 7.49987V7.91654ZM7.05407 6.07387C6.87916 5.82202 6.65849 5.60313 6.4019 5.42944C5.98805 5.14929 5.49975 4.99955 4.99998 4.99955C4.50022 4.99955 4.01192 5.14929 3.59806 5.42944C3.34148 5.60313 3.1208 5.82202 2.94589 6.07387C2.82319 5.99965 2.69072 5.94114 2.55148 5.90039C2.21905 5.80309 1.86457 5.81177 1.53731 5.92524C1.21005 6.03871 0.926267 6.25132 0.725417 6.53351C0.524567 6.81571 0.416627 7.15347 0.416602 7.49984V8.33321C0.416602 8.56333 0.603152 8.74988 0.833273 8.74988H9.16669C9.39681 8.74988 9.58336 8.56333 9.58336 8.33321V7.49987C9.58334 7.1535 9.4754 6.8157 9.27455 6.53351C9.0737 6.25132 8.78992 6.03871 8.46266 5.92524C8.1354 5.81177 7.78091 5.80309 7.44849 5.90039C7.30925 5.94114 7.17678 5.99965 7.05407 6.07387ZM2.58869 6.83737C2.50789 6.77574 2.41603 6.72905 2.31738 6.70017C2.15117 6.65152 1.97393 6.65587 1.8103 6.7126C1.64667 6.76933 1.50478 6.87564 1.40435 7.01674C1.30393 7.15783 1.24996 7.32669 1.24994 7.49987C1.24994 7.49986 1.24994 7.49988 1.24994 7.49987V7.91654H2.49996V7.49987C2.49996 7.27111 2.53072 7.04883 2.58869 6.83737Z" fill="#7C8493"/>
</g>
<defs>
<clipPath id="clip0_0_1301">
<rect width="9.4" height="9.4" fill="white" transform="scale(1.06384)"/>
</clipPath>
</defs>
</svg>
