<svg width="10" height="10" viewBox="0 0 10 10" fill="none" xmlns="http://www.w3.org/2000/svg">
<g clip-path="url(#clip0_0_1338)">
<path d="M4.99984 8.74943C7.07083 8.74943 8.74969 7.07057 8.74969 4.99958C8.74969 2.9286 7.07083 1.24974 4.99984 1.24974C2.92886 1.24974 1.25 2.9286 1.25 4.99958C1.25 7.07057 2.92886 8.74943 4.99984 8.74943Z" stroke="#7C8493" stroke-width="0.783333" stroke-linecap="round" stroke-linejoin="round"/>
<path d="M4.99974 7.0829V7.08707" stroke="#7C8493" stroke-width="0.783333" stroke-linecap="round" stroke-linejoin="round"/>
<path d="M4.99988 5.62472C4.99221 5.48947 5.02869 5.35538 5.10384 5.24266C5.17899 5.12994 5.28873 5.04469 5.41653 4.99975C5.57314 4.93986 5.7137 4.84444 5.82717 4.72099C5.94063 4.59755 6.02389 4.44945 6.07039 4.28836C6.11689 4.12727 6.12536 3.95758 6.09514 3.79266C6.06491 3.62774 5.99682 3.47208 5.89622 3.33795C5.79562 3.20381 5.66526 3.09486 5.5154 3.01967C5.36553 2.94448 5.20026 2.9051 5.0326 2.90464C4.86493 2.90417 4.69944 2.94263 4.54917 3.01699C4.39889 3.09135 4.26792 3.19958 4.16658 3.33315" stroke="#7C8493" stroke-width="0.783333" stroke-linecap="round" stroke-linejoin="round"/>
</g>
<defs>
<clipPath id="clip0_0_1338">
<rect width="9.4" height="9.4" fill="white" transform="scale(1.06379)"/>
</clipPath>
</defs>
</svg>
