<svg width="10" height="10" viewBox="0 0 10 10" fill="none" xmlns="http://www.w3.org/2000/svg">
<g clip-path="url(#clip0_0_1305)">
<path d="M3.74995 2.08353H2.91661C2.69559 2.08353 2.48363 2.17133 2.32735 2.32761C2.17107 2.48389 2.08327 2.69585 2.08327 2.91687V7.91692C2.08327 8.13794 2.17107 8.3499 2.32735 8.50618C2.48363 8.66247 2.69559 8.75026 2.91661 8.75026H7.08332C7.30434 8.75026 7.5163 8.66247 7.67258 8.50618C7.82886 8.3499 7.91666 8.13794 7.91666 7.91692V2.91687C7.91666 2.69585 7.82886 2.48389 7.67258 2.32761C7.5163 2.17133 7.30434 2.08353 7.08332 2.08353H6.24998" stroke="#7C8493" stroke-width="0.783333" stroke-linecap="round" stroke-linejoin="round"/>
<path d="M5.41662 1.24981H4.58328C4.12303 1.24981 3.74994 1.62291 3.74994 2.08315C3.74994 2.54339 4.12303 2.91649 4.58328 2.91649H5.41662C5.87686 2.91649 6.24996 2.54339 6.24996 2.08315C6.24996 1.62291 5.87686 1.24981 5.41662 1.24981Z" stroke="#7C8493" stroke-width="0.783333" stroke-linecap="round" stroke-linejoin="round"/>
<path d="M3.74994 5.00026H3.7541" stroke="#7C8493" stroke-width="0.783333" stroke-linecap="round" stroke-linejoin="round"/>
<path d="M5.4166 5.00026H6.24994" stroke="#7C8493" stroke-width="0.783333" stroke-linecap="round" stroke-linejoin="round"/>
<path d="M3.74994 6.66667H3.7541" stroke="#7C8493" stroke-width="0.783333" stroke-linecap="round" stroke-linejoin="round"/>
<path d="M5.4166 6.66667H6.24994" stroke="#7C8493" stroke-width="0.783333" stroke-linecap="round" stroke-linejoin="round"/>
</g>
<defs>
<clipPath id="clip0_0_1305">
<rect width="9.4" height="9.4" fill="white" transform="scale(1.06384)"/>
</clipPath>
</defs>
</svg>
