<svg width="10" height="10" viewBox="0 0 10 10" fill="none" xmlns="http://www.w3.org/2000/svg">
<g clip-path="url(#clip0_0_1333)">
<path d="M4.30196 1.79847C4.47945 1.06683 5.52024 1.06683 5.69773 1.79847C5.72436 1.90838 5.77657 2.01045 5.8501 2.09637C5.92364 2.18229 6.01642 2.24964 6.1209 2.29292C6.22538 2.33621 6.33861 2.35422 6.45136 2.34547C6.56411 2.33673 6.67321 2.30149 6.76977 2.24262C7.41266 1.85097 8.14888 2.58677 7.75723 3.23007C7.69844 3.32659 7.66325 3.43562 7.65453 3.5483C7.64581 3.66098 7.6638 3.77412 7.70703 3.87854C7.75027 3.98296 7.81753 4.0757 7.90336 4.14922C7.98918 4.22275 8.09115 4.27499 8.20096 4.3017C8.9326 4.47919 8.9326 5.51998 8.20096 5.69747C8.09105 5.7241 7.98898 5.77631 7.90306 5.84984C7.81714 5.92338 7.74979 6.01616 7.7065 6.12064C7.66322 6.22512 7.64521 6.33835 7.65395 6.4511C7.6627 6.56386 7.69794 6.67295 7.75681 6.76951C8.14846 7.4124 7.41266 8.14862 6.76935 7.75697C6.67283 7.69818 6.56381 7.66299 6.45113 7.65427C6.33845 7.64555 6.22531 7.66354 6.12089 7.70678C6.01647 7.75001 5.92373 7.81728 5.8502 7.9031C5.77668 7.98892 5.72444 8.09089 5.69773 8.2007C5.52024 8.93234 4.47945 8.93234 4.30196 8.2007C4.27533 8.09079 4.22312 7.98872 4.14958 7.9028C4.07605 7.81688 3.98327 7.74953 3.87879 7.70624C3.77431 7.66296 3.66108 7.64495 3.54833 7.65369C3.43557 7.66244 3.32648 7.69768 3.22992 7.75655C2.58703 8.1482 1.85081 7.4124 2.24246 6.76909C2.30125 6.67257 2.33643 6.56355 2.34516 6.45087C2.35388 6.33819 2.33589 6.22505 2.29265 6.12063C2.24942 6.01621 2.18215 5.92347 2.09633 5.84994C2.0105 5.77642 1.90854 5.72418 1.79873 5.69747C1.06709 5.51998 1.06709 4.47919 1.79873 4.3017C1.90864 4.27507 2.01071 4.22286 2.09663 4.14932C2.18255 4.07579 2.2499 3.98301 2.29318 3.87853C2.33647 3.77405 2.35448 3.66082 2.34573 3.54807C2.33699 3.43531 2.30175 3.32622 2.24288 3.22966C1.85122 2.58677 2.58703 1.85055 3.23033 2.2422C3.64532 2.49552 4.18696 2.27136 4.30196 1.79847Z" stroke="#7C8493" stroke-width="0.783333" stroke-linecap="round" stroke-linejoin="round"/>
<path d="M6.24964 5.00021C6.24964 5.33171 6.11795 5.64964 5.88354 5.88405C5.64912 6.11847 5.3312 6.25016 4.99969 6.25016C4.66818 6.25016 4.35025 6.11847 4.11584 5.88405C3.88143 5.64964 3.74974 5.33171 3.74974 5.00021C3.74974 4.6687 3.88143 4.35077 4.11584 4.11636C4.35025 3.88195 4.66818 3.75026 4.99969 3.75026C5.3312 3.75026 5.64912 3.88195 5.88354 4.11636C6.11795 4.35077 6.24964 4.6687 6.24964 5.00021V5.00021Z" stroke="#7C8493" stroke-width="0.783333" stroke-linecap="round" stroke-linejoin="round"/>
</g>
<defs>
<clipPath id="clip0_0_1333">
<rect width="9.4" height="9.4" fill="white" transform="scale(1.06379)"/>
</clipPath>
</defs>
</svg>
