<svg width="10" height="10" viewBox="0 0 10 10" fill="none" xmlns="http://www.w3.org/2000/svg">
<g clip-path="url(#clip0_0_1387)">
<path fill-rule="evenodd" clip-rule="evenodd" d="M4.36084 8.39067C4.57632 8.63108 4.85294 8.76316 5.13997 8.76316H5.14038C5.42866 8.76316 5.70653 8.63108 5.92243 8.39025C6.03807 8.26233 6.23524 8.25192 6.36295 8.36733C6.49107 8.48275 6.50147 8.68066 6.38624 8.80858C6.05013 9.18233 5.60795 9.38816 5.14038 9.38816H5.13955C4.67324 9.38774 4.23189 9.18191 3.89702 8.80816C3.7818 8.68025 3.7922 8.48233 3.92032 8.36733C4.04844 8.2515 4.24561 8.26192 4.36084 8.39067ZM5.16068 0.429912C7.00971 0.429912 8.25183 1.8724 8.25183 3.21947C8.25183 3.91238 8.42779 4.20612 8.61456 4.51779C8.79926 4.82529 9.0085 5.17445 9.0085 5.83444C8.86332 7.52067 7.1058 7.65817 5.16068 7.65817C3.21556 7.65817 1.45763 7.52067 1.31412 5.86111C1.31287 5.17445 1.52211 4.82529 1.70681 4.51779L1.77201 4.40785C1.93255 4.13148 2.06954 3.83086 2.06954 3.21947C2.06954 1.8724 3.31166 0.429912 5.16068 0.429912ZM5.16068 1.05491C3.70684 1.05491 2.69351 2.19573 2.69351 3.21947C2.69351 4.08571 2.45349 4.48612 2.24134 4.83945C2.0712 5.1232 1.93684 5.34736 1.93684 5.83444C2.00631 6.62027 2.52421 7.03318 5.16068 7.03318C7.7826 7.03318 8.31672 6.60193 8.38577 5.80736C8.38453 5.34736 8.25016 5.1232 8.08003 4.83945C7.86788 4.48612 7.62786 4.08571 7.62786 3.21947C7.62786 2.19573 6.61453 1.05491 5.16068 1.05491Z" fill="#25324B"/>
<path d="M7.48763 3.95777C8.29204 3.95777 8.94356 3.30469 8.94356 2.49979C8.94356 1.6949 8.29204 1.04182 7.48763 1.04182C6.68322 1.04182 6.0317 1.6949 6.0317 2.49979C6.0317 3.30469 6.68322 3.95777 7.48763 3.95777Z" fill="#FF6550" stroke="white" stroke-width="0.391667"/>
</g>
<defs>
<clipPath id="clip0_0_1387">
<rect width="9.4" height="9.41543" fill="white" transform="scale(1.06208)"/>
</clipPath>
</defs>
</svg>
