<svg width="10" height="10" viewBox="0 0 10 10" fill="none" xmlns="http://www.w3.org/2000/svg">
<g clip-path="url(#clip0_0_1400)">
<path fill-rule="evenodd" clip-rule="evenodd" d="M5.00007 1.66693C5.23019 1.66693 5.41674 1.85348 5.41674 2.0836V7.91699C5.41674 8.14711 5.23019 8.33366 5.00007 8.33366C4.76995 8.33366 4.5834 8.14711 4.5834 7.91699V2.0836C4.5834 1.85348 4.76995 1.66693 5.00007 1.66693Z" fill="white"/>
<path fill-rule="evenodd" clip-rule="evenodd" d="M1.66667 4.99981C1.66667 4.76969 1.85322 4.58314 2.08334 4.58314H7.91673C8.14685 4.58314 8.3334 4.76969 8.3334 4.99981C8.3334 5.22993 8.14685 5.41648 7.91673 5.41648H2.08334C1.85322 5.41648 1.66667 5.22993 1.66667 4.99981Z" fill="white"/>
</g>
<defs>
<clipPath id="clip0_0_1400">
<rect width="9.4" height="9.4" fill="white" transform="scale(1.06384)"/>
</clipPath>
</defs>
</svg>
