<svg width="48" height="48" viewBox="0 0 48 48" fill="none" xmlns="http://www.w3.org/2000/svg">
<g clip-path="url(#clip0_0_1923)">
<path d="M6 42.0001H14L40 16.0001C41.0609 14.9393 41.6569 13.5004 41.6569 12.0001C41.6569 10.4998 41.0609 9.06098 40 8.00012C38.9391 6.93925 37.5003 6.34326 36 6.34326C34.4997 6.34326 33.0609 6.93925 32 8.00012L6 34.0001V42.0001Z" stroke="#4640DE" stroke-width="3" stroke-linecap="round" stroke-linejoin="round"/>
<path d="M29 11L37 19" stroke="#4640DE" stroke-width="3" stroke-linecap="round" stroke-linejoin="round"/>
<path d="M24 16L14 6L6 14L16 24" stroke="#4640DE" stroke-width="3" stroke-linecap="round" stroke-linejoin="round"/>
<path d="M14 16L11 19" stroke="#4640DE" stroke-width="3" stroke-linecap="round" stroke-linejoin="round"/>
<path d="M32 24L42 34L34 42L24 32" stroke="#4640DE" stroke-width="3" stroke-linecap="round" stroke-linejoin="round"/>
<path d="M32 34L29 37" stroke="#4640DE" stroke-width="3" stroke-linecap="round" stroke-linejoin="round"/>
</g>
<defs>
<clipPath id="clip0_0_1923">
<rect width="48" height="48" fill="white"/>
</clipPath>
</defs>
</svg>
