<svg width="8" height="8" viewBox="0 0 8 8" fill="none" xmlns="http://www.w3.org/2000/svg">
<g clip-path="url(#clip0_0_1527)">
<path d="M7.30671 3.86682C6.63337 2.30347 5.36669 1.33346 4.00001 1.33346C2.63333 1.33346 1.36665 2.30347 0.693311 3.86682C0.674956 3.90887 0.665482 3.95427 0.665482 4.00015C0.665482 4.04604 0.674956 4.09143 0.693311 4.13349C1.36665 5.69684 2.63333 6.66685 4.00001 6.66685C5.36669 6.66685 6.63337 5.69684 7.30671 4.13349C7.32507 4.09143 7.33454 4.04604 7.33454 4.00015C7.33454 3.95427 7.32507 3.90887 7.30671 3.86682ZM4.00001 6.00017C2.94 6.00017 1.94332 5.23683 1.36665 4.00015C1.94332 2.76347 2.94 2.00013 4.00001 2.00013C5.06002 2.00013 6.0567 2.76347 6.63337 4.00015C6.0567 5.23683 5.06002 6.00017 4.00001 6.00017ZM4.00001 2.66681C3.7363 2.66681 3.47851 2.745 3.25924 2.89151C3.03998 3.03802 2.86908 3.24626 2.76816 3.4899C2.66724 3.73354 2.64084 4.00163 2.69228 4.26028C2.74373 4.51892 2.87072 4.7565 3.05719 4.94297C3.24366 5.12944 3.48124 5.25643 3.73989 5.30788C3.99853 5.35933 4.26662 5.33292 4.51026 5.232C4.7539 5.13109 4.96214 4.96019 5.10865 4.74092C5.25516 4.52165 5.33336 4.26386 5.33336 4.00015C5.33336 3.64653 5.19288 3.30738 4.94283 3.05733C4.69278 2.80728 4.35364 2.66681 4.00001 2.66681ZM4.00001 4.66683C3.86816 4.66683 3.73926 4.62773 3.62963 4.55447C3.51999 4.48122 3.43454 4.3771 3.38409 4.25528C3.33363 4.13346 3.32042 3.99941 3.34615 3.87009C3.37187 3.74077 3.43537 3.62198 3.5286 3.52874C3.62184 3.43551 3.74063 3.37201 3.86995 3.34629C3.99927 3.32056 4.13332 3.33377 4.25514 3.38423C4.37696 3.43468 4.48108 3.52013 4.55433 3.62977C4.62759 3.7394 4.66669 3.8683 4.66669 4.00015C4.66669 4.17696 4.59645 4.34654 4.47142 4.47156C4.3464 4.59659 4.17682 4.66683 4.00001 4.66683Z" fill="white"/>
</g>
<defs>
<clipPath id="clip0_0_1527">
<rect width="7.83333" height="7.83333" fill="white" transform="scale(1.02129)"/>
</clipPath>
</defs>
</svg>
