<svg width="12" height="12" viewBox="0 0 12 12" fill="none" xmlns="http://www.w3.org/2000/svg">
<path fill-rule="evenodd" clip-rule="evenodd" d="M3.51936 0.0736373C2.5433 0.117707 1.69731 0.356504 1.01419 1.03721C0.328689 1.72149 0.0930205 2.57141 0.0488712 3.53798C0.021427 4.14127 -0.139052 8.69895 0.326304 9.89421C0.640121 10.7006 1.25819 11.3206 2.07137 11.6356C2.45082 11.7833 2.88397 11.8833 3.51936 11.9125C8.83217 12.1531 10.8016 12.0221 11.6321 9.89421C11.7794 9.51544 11.8808 9.08237 11.9089 8.44812C12.1517 3.11801 11.8695 1.96268 10.9436 1.03721C10.2092 0.304095 9.34525 -0.194952 3.51936 0.0736373ZM3.56827 10.8405C2.98657 10.8143 2.67097 10.7173 2.46037 10.6357C1.93058 10.4297 1.53264 10.0331 1.328 9.50603C0.973617 8.59782 1.09115 4.2843 1.12277 3.58632C1.1538 2.90263 1.29221 2.27779 1.77427 1.79541C2.37088 1.19986 3.14169 0.907991 8.39007 1.14502C9.07498 1.17599 9.70083 1.31421 10.1841 1.79541C10.7807 2.39095 11.0766 3.16823 10.8356 8.40007C10.8093 8.98073 10.7121 9.2958 10.6304 9.50603C10.0904 10.8907 8.84827 11.0829 3.56827 10.8405ZM8.44795 2.81376C8.44795 3.20802 8.76834 3.52861 9.16389 3.52861C9.55944 3.52861 9.88042 3.20802 9.88042 2.81376C9.88042 2.41952 9.55944 2.09922 9.16389 2.09922C8.76834 2.09922 8.44795 2.41952 8.44795 2.81376ZM2.91558 5.99276C2.91558 7.68172 4.28719 9.05105 5.97918 9.05105C7.67117 9.05105 9.04278 7.68172 9.04278 5.99276C9.04278 4.3038 7.67117 2.93535 5.97918 2.93535C4.28719 2.93535 2.91558 4.3038 2.91558 5.99276ZM3.99067 5.99276C3.99067 4.89696 4.88082 4.0079 5.97918 4.0079C7.07754 4.0079 7.96768 4.89696 7.96768 5.99276C7.96768 7.08915 7.07754 7.97849 5.97918 7.97849C4.88082 7.97849 3.99067 7.08915 3.99067 5.99276Z" fill="white"/>
</svg>
