<svg width="10" height="10" viewBox="0 0 10 10" fill="none" xmlns="http://www.w3.org/2000/svg">
<path fill-rule="evenodd" clip-rule="evenodd" d="M9.99292 10H7.99434V6.50049C7.99434 5.54049 7.57114 5.00488 6.81217 5.00488C5.98626 5.00488 5.49611 5.56299 5.49611 6.50049V10H3.49752V3.5H5.49611V4.23096C5.49611 4.23096 6.12316 3.12988 7.53616 3.12988C8.94966 3.12988 9.99292 3.99305 9.99292 5.77905V10ZM1.22014 2.46045C0.546114 2.46045 0 1.90948 0 1.22998C0 0.55098 0.546114 0 1.22014 0C1.89366 0 2.43977 0.55098 2.43977 1.22998C2.44027 1.90948 1.89366 2.46045 1.22014 2.46045ZM0 10H2.49823V3.5H0V10Z" fill="white"/>
</svg>
