<svg width="20" height="20" viewBox="0 0 20 20" fill="none" xmlns="http://www.w3.org/2000/svg">
<path d="M10.8334 13.3333H2.50008C2.27907 13.3333 2.06711 13.4211 1.91083 13.5774C1.75455 13.7337 1.66675 13.9457 1.66675 14.1667C1.66675 14.3877 1.75455 14.5996 1.91083 14.7559C2.06711 14.9122 2.27907 15 2.50008 15H10.8334C11.0544 15 11.2664 14.9122 11.4227 14.7559C11.579 14.5996 11.6667 14.3877 11.6667 14.1667C11.6667 13.9457 11.579 13.7337 11.4227 13.5774C11.2664 13.4211 11.0544 13.3333 10.8334 13.3333ZM2.50008 6.66667H17.5001C17.7211 6.66667 17.9331 6.57887 18.0893 6.42259C18.2456 6.26631 18.3334 6.05435 18.3334 5.83333C18.3334 5.61232 18.2456 5.40036 18.0893 5.24408C17.9331 5.0878 17.7211 5 17.5001 5H2.50008C2.27907 5 2.06711 5.0878 1.91083 5.24408C1.75455 5.40036 1.66675 5.61232 1.66675 5.83333C1.66675 6.05435 1.75455 6.26631 1.91083 6.42259C2.06711 6.57887 2.27907 6.66667 2.50008 6.66667ZM17.5001 9.16667H2.50008C2.27907 9.16667 2.06711 9.25446 1.91083 9.41074C1.75455 9.56702 1.66675 9.77899 1.66675 10C1.66675 10.221 1.75455 10.433 1.91083 10.5893C2.06711 10.7455 2.27907 10.8333 2.50008 10.8333H17.5001C17.7211 10.8333 17.9331 10.7455 18.0893 10.5893C18.2456 10.433 18.3334 10.221 18.3334 10C18.3334 9.77899 18.2456 9.56702 18.0893 9.41074C17.9331 9.25446 17.7211 9.16667 17.5001 9.16667Z" fill="#25324B"/>
</svg>
