<svg width="12" height="10" viewBox="0 0 12 10" fill="none" xmlns="http://www.w3.org/2000/svg">
<path fill-rule="evenodd" clip-rule="evenodd" d="M3.77139 10C8.29646 10 10.7715 6.15218 10.7715 2.81576C10.7715 2.70623 10.7715 2.59752 10.7643 2.48922C11.2458 2.13232 11.6613 1.68918 11.9917 1.18214C11.5432 1.38643 11.0665 1.52041 10.5791 1.57948C11.0923 1.26381 11.4767 0.767869 11.6607 0.182674C11.1775 0.476809 10.6492 0.684398 10.0982 0.79578C9.16645 -0.220776 7.60813 -0.270029 6.61702 0.686221C5.97846 1.3028 5.70685 2.2221 5.90531 3.09897C3.92728 2.99683 2.08416 2.03813 0.834622 0.460998C0.181674 1.61477 0.515643 3.09022 1.59669 3.8311C1.20517 3.8194 0.822031 3.71122 0.479668 3.51554V3.54759C0.480268 4.74936 1.3059 5.78415 2.4535 6.02229C2.09135 6.12382 1.71122 6.13854 1.34307 6.06532C1.66505 7.09418 2.58901 7.79888 3.64128 7.81919C2.77008 8.52191 1.69383 8.90349 0.585795 8.90227C0.39033 8.90165 0.194865 8.88995 0 8.86595C1.12542 9.60683 2.43431 10 3.77139 9.99817" fill="white"/>
</svg>
