<svg width="15" height="5" viewBox="0 0 15 5" fill="none" xmlns="http://www.w3.org/2000/svg">
<mask id="path-1-inside-1_0_892" fill="white">
<path d="M7.5 4.77724C10.2729 4.77724 13.0457 2.58754 14.8459 0.80192C15.2612 0.390019 14.7611 -0.20394 14.244 0.0693764C12.2872 1.10366 9.59956 2.28032 7.5 2.28032C5.40044 2.28032 2.71284 1.10366 0.756005 0.0693759C0.238895 -0.203941 -0.261152 0.390017 0.154109 0.801918C1.95429 2.58753 4.72714 4.77724 7.5 4.77724Z"/>
</mask>
<path d="M14.8459 0.80192L17.0439 3.01786V3.01786L14.8459 0.80192ZM0.154109 0.801918L-2.0439 3.01786H-2.0439L0.154109 0.801918ZM0.756005 0.0693759L2.21449 -2.69005L2.21449 -2.69005L0.756005 0.0693759ZM14.244 0.0693764L12.7855 -2.69005L12.7855 -2.69005L14.244 0.0693764ZM12.6479 -1.41402C11.847 -0.619615 10.897 0.194684 9.91375 0.793776C8.90362 1.40922 8.09009 1.65608 7.5 1.65608V7.8984C9.68276 7.8984 11.6421 7.05042 13.1616 6.1246C14.708 5.18243 16.0446 4.00907 17.0439 3.01786L12.6479 -1.41402ZM7.5 1.65608C6.90991 1.65608 6.09638 1.40921 5.08625 0.793775C4.10295 0.194683 3.153 -0.619617 2.35212 -1.41402L-2.0439 3.01786C-1.0446 4.00907 0.291962 5.18243 1.83835 6.1246C3.35791 7.05041 5.31724 7.8984 7.5 7.8984V1.65608ZM-0.702481 2.8288C0.354005 3.38721 1.65584 4.01036 3.01943 4.50013C4.34446 4.97605 5.93116 5.40147 7.5 5.40147V-0.840843C6.96927 -0.840843 6.1624 -1.00375 5.12953 -1.37473C4.13522 -1.73186 3.11484 -2.21418 2.21449 -2.69005L-0.702481 2.8288ZM7.5 5.40147C9.06884 5.40147 10.6555 4.97605 11.9806 4.50013C13.3442 4.01036 14.646 3.38721 15.7025 2.82881L12.7855 -2.69005C11.8852 -2.21417 10.8648 -1.73186 9.87047 -1.37473C8.8376 -1.00375 8.03073 -0.840843 7.5 -0.840843V5.40147ZM17.0439 3.01786C17.6619 2.40488 18.0886 1.55153 18.1194 0.573318C18.1489 -0.367403 17.805 -1.20229 17.2954 -1.81571C16.2511 -3.07283 14.4 -3.54337 12.7855 -2.69005L15.7025 2.82881C14.6051 3.40881 13.2626 3.09859 12.4937 2.17309C12.1219 1.72549 11.8574 1.09924 11.8801 0.37719C11.904 -0.382345 12.2375 -1.00699 12.6479 -1.41402L17.0439 3.01786ZM2.35212 -1.41402C2.76247 -1.00699 3.09599 -0.382346 3.11987 0.377192C3.14256 1.09924 2.87808 1.72549 2.50625 2.1731C1.73742 3.09859 0.394872 3.40881 -0.702481 2.8288L2.21449 -2.69005C0.600028 -3.54337 -1.2511 -3.07284 -2.29541 -1.81571C-2.80498 -1.2023 -3.14894 -0.367411 -3.11937 0.573313C-3.08862 1.55152 -2.66188 2.40487 -2.0439 3.01786L2.35212 -1.41402Z" fill="white" mask="url(#path-1-inside-1_0_892)"/>
</svg>
