<svg width="6" height="2" viewBox="0 0 6 2" fill="none" xmlns="http://www.w3.org/2000/svg">
<mask id="path-1-inside-1_0_1261" fill="white">
<path d="M2.99997 1.91074C4.10916 1.91074 5.21834 1.03483 5.93844 0.320555C6.10455 0.155788 5.90453 -0.0818039 5.69767 0.0275269C4.91491 0.441254 3.83983 0.911936 2.99997 0.911936C2.16012 0.911936 1.08504 0.441254 0.302274 0.0275265C0.0954221 -0.0818042 -0.104604 0.155788 0.0615066 0.320555C0.781606 1.03483 1.89079 1.91074 2.99997 1.91074Z"/>
</mask>
<path d="M5.93844 0.320555L5.0592 -0.565854V-0.565854L5.93844 0.320555ZM0.0615066 0.320555L-0.817731 1.20696L-0.817731 1.20696L0.0615066 0.320555ZM0.302274 0.0275265L0.885691 -1.07629L0.88569 -1.07629L0.302274 0.0275265ZM5.69767 0.0275269L6.28109 1.13134L6.28109 1.13134L5.69767 0.0275269ZM5.0592 -0.565854C4.73884 -0.24808 4.35884 0.0776518 3.96551 0.317297C3.56144 0.563483 3.23602 0.662234 2.99997 0.662234V3.15925C3.87311 3.15925 4.65687 2.82005 5.26472 2.44971C5.8833 2.07283 6.41794 1.60346 6.81768 1.20696L5.0592 -0.565854ZM2.99997 0.662234C2.76393 0.662234 2.43851 0.563482 2.03444 0.317297C1.6411 0.0776515 1.26111 -0.248081 0.940744 -0.565854L-0.817731 1.20696C-0.417996 1.60346 0.11665 2.07283 0.735229 2.44971C1.34307 2.82005 2.12684 3.15925 2.99997 3.15925V0.662234ZM-0.281143 1.13134C0.141468 1.35471 0.662221 1.60398 1.20768 1.7999C1.73771 1.99027 2.37242 2.16045 2.99997 2.16045V-0.336575C2.78768 -0.336575 2.46491 -0.40174 2.05175 -0.550137C1.65401 -0.692995 1.24584 -0.885928 0.885691 -1.07629L-0.281143 1.13134ZM2.99997 2.16045C3.62753 2.16045 4.26224 1.99027 4.79227 1.7999C5.33773 1.60398 5.85848 1.35471 6.28109 1.13134L5.11426 -1.07629C4.7541 -0.885928 4.34594 -0.692995 3.9482 -0.550137C3.53504 -0.40174 3.21227 -0.336575 2.99997 -0.336575V2.16045ZM6.81768 1.20696C7.06488 0.961763 7.23558 0.62041 7.24788 0.229111C7.25971 -0.147193 7.12212 -0.481161 6.91829 -0.726536C6.50055 -1.2294 5.76007 -1.41763 5.11426 -1.07629L6.28109 1.13134C5.84213 1.36335 5.30509 1.23926 4.99755 0.869045C4.84881 0.689997 4.74301 0.439488 4.75209 0.150657C4.76164 -0.153169 4.89506 -0.403036 5.0592 -0.565854L6.81768 1.20696ZM0.940744 -0.565854C1.10489 -0.403035 1.2383 -0.153169 1.24785 0.150657C1.25693 0.439488 1.15114 0.689998 1.0024 0.869045C0.694857 1.23926 0.157816 1.36335 -0.281142 1.13134L0.88569 -1.07629C0.23988 -1.41763 -0.5006 -1.2294 -0.918339 -0.726537C-1.12218 -0.481162 -1.25976 -0.147194 -1.24793 0.229109C-1.23563 0.620408 -1.06493 0.961761 -0.817731 1.20696L0.940744 -0.565854Z" fill="white" mask="url(#path-1-inside-1_0_1261)"/>
</svg>
