<svg width="142" height="24" viewBox="0 0 142 24" fill="none" xmlns="http://www.w3.org/2000/svg">
<path d="M114.973 9.52057V23.9998H119.567V14.347H136.367V23.9998H140.96V9.52057H114.973ZM119.042 4.8264H136.761C139.254 4.3636 141.026 2.11568 141.551 0H114.251C114.776 2.11568 116.614 4.29748 119.042 4.8264ZM100.995 23.9998C103.292 23.0081 104.539 21.2891 105.064 19.3056H84.3925V0.0661151H79.7332V23.9998H100.995ZM45.2806 4.76029H61.6866C64.1803 4.03302 66.2147 2.11568 66.7397 0.0661151H40.7525V14.2147H62.0147V19.1734H45.3462C42.7213 19.9006 40.49 21.6857 39.3744 23.9998H66.6084V9.52057H45.3462L45.2806 4.76029ZM4.85618 4.8264H22.5747C25.0684 4.3636 26.9059 2.11568 27.3652 0H0C0.524992 2.11568 2.36247 4.29748 4.85618 4.8264ZM4.85618 14.2809H22.5747C25.0684 13.8181 26.9059 11.5701 27.3652 9.45446H0C0.524992 11.5701 2.36247 13.7519 4.85618 14.2809ZM4.85618 23.9998H22.5747C25.0684 23.537 26.9059 21.2891 27.3652 19.1734H0C0.524992 21.2891 2.36247 23.537 4.85618 23.9998Z" fill="#202430"/>
</svg>
